<svg viewBox="0 0 50 50" xmlns="http://www.w3.org/2000/svg">
    <path d="M25 1L40 1C45.53 1 49 4.47 49 10V40C49 45.53 45.53 49 40 49H10C4.47 49 1 45.53 1 40V10C1 4.47 4.47 1 10 1H25" fill="#FFD932" stroke="#FFD932" stroke-width="2"/>
    <path d="M14.8 40.8Q16.8 44.2 20 44.2C22.9 44.2 24.7 42.4 24.7 39.5V22.9" fill="#0000" stroke="#000" stroke-width="4.3"/>
    <path d="M43.1 27.5Q41.3 24.6 38.2 24.6C35.1 24.6 33.3 26.4 33.3 29.5Q33.3 33 38.6 34.5Q43.9 36 43.9 39.6C43.9 43 40.8 44.2 38.2 44.2Q33.9 44.2 31.6 40.3" fill="#0000" stroke="#000" stroke-width="4.3"/>
</svg>
